<?xml version="1.0" encoding="iso-8859-1"?>
<!-- Generator: Adobe Illustrator 19.0.0, SVG Export Plug-In . SVG Version: 6.00 Build 0)  -->
<svg version="1.1" id="Capa_1" xmlns="http://www.w3.org/2000/svg" xmlns:xlink="http://www.w3.org/1999/xlink" x="0px" y="0px"
	 viewBox="0 0 330 330" style="enable-background:new 0 0 330 330;" xml:space="preserve">
<g id="XMLID_444_">
	<path id="XMLID_445_" style="fill:#0052B4;" d="M95,300c0,11.046-8.954,20-20,20l0,0c-11.046,0-20-8.954-20-20V20
		C55,8.954,63.954,0,75,0l0,0c11.046,0,20,8.954,20,20V300z"/>
	<polygon id="XMLID_446_" style="fill:#FF9811;" points="305,190 55,190 55,30 305,30 265,110 	"/>
	<polygon id="XMLID_447_" style="fill:#FF5023;" points="305,190 85,190 305,30 265,110 	"/>
	<rect id="XMLID_448_" x="55" y="30" style="fill:#FFDA44;" width="40" height="160"/>
	<polygon id="XMLID_449_" style="fill:#0052B4;" points="75,330 25,330 25,300 75,290 	"/>
	<polygon id="XMLID_450_" style="fill:#006DF0;" points="125,330 75,330 75,290 125,300 	"/>
</g>
<g>
</g>
<g>
</g>
<g>
</g>
<g>
</g>
<g>
</g>
<g>
</g>
<g>
</g>
<g>
</g>
<g>
</g>
<g>
</g>
<g>
</g>
<g>
</g>
<g>
</g>
<g>
</g>
<g>
</g>
</svg>
