<svg version="1.1" id="Capa_1" xmlns="http://www.w3.org/2000/svg" xmlns:xlink="http://www.w3.org/1999/xlink"
	 viewBox="0 0 20.07 7" >
<g class="currentLayer" ><title>Layer 1</title><g id="svg_1" class="">
	<g id="svg_2">
		<path d="M20.23326530277729,3.6530206222534183 c0,0 -0.7190000000000001,-1.593 -5.363,-1.53 c0,0 -4.626,-4.644 -13.986,0.5820000000000001 c0,0 0.20500000000000002,1.018 -0.5660000000000001,1.018 c-0.15900000000000003,0.7650000000000001 -0.32200000000000006,1.7690000000000001 0.203,2.294 c1.146,0 1.2570000000000001,0 1.266,0 c-0.028000000000000004,-0.12300000000000001 -0.04400000000000001,-0.25 -0.04400000000000001,-0.38100000000000006 c0,-0.9510000000000001 0.771,-1.722 1.722,-1.722 s1.722,0.771 1.722,1.722 c0,0.131 -0.016000000000000004,0.258 -0.04400000000000001,0.38100000000000006 h0.268 h8.357 h1.119 c-0.027000000000000007,-0.12300000000000001 -0.04300000000000001,-0.25 -0.04300000000000001,-0.38100000000000006 c0,-0.9510000000000001 0.771,-1.722 1.721,-1.722 c1.2970000000000002,0 2.037,1.318 1.9060000000000001,2.092 l1.762,-0.18200000000000002 C19.96426530277729,4.238020622253417 20.23326530277729,3.6530206222534183 20.23326530277729,3.6530206222534183 zM7.09926530277729,2.386020622253419 H2.9922653027772905 c0,0 1.703,-0.798 4.107,-1.2610000000000001 V2.386020622253419 zM7.99026530277729,2.386020622253419 V0.9780206222534176 c3.442,-0.49800000000000005 6.143,1.408 6.143,1.408 H7.99026530277729 z" id="svg_3"/>
		<path style="fill:#d06b6b;" d="M16.56526530277729,4.293020622253419 c-0.7340000000000001,0 -1.33,0.5950000000000001 -1.33,1.33 c0,0.7330000000000001 0.5960000000000001,1.3290000000000002 1.33,1.3290000000000002 s1.514,-0.5960000000000001 1.514,-1.3290000000000002 C18.07926530277729,4.887020622253418 17.30026530277729,4.293020622253419 16.56526530277729,4.293020622253419 zM16.56526530277729,6.133020622253419 c-0.28300000000000003,0 -0.512,-0.22900000000000004 -0.512,-0.511 s0.22900000000000004,-0.512 0.512,-0.512 c0.281,0 0.512,0.22900000000000004 0.512,0.512 C17.077265302777292,5.904020622253418 16.84626530277729,6.133020622253419 16.56526530277729,6.133020622253419 z" id="svg_4"/>
		<path style="fill:#d06b6b;" d="M3.43126530277729,4.293020622253419 c-0.7340000000000001,0 -1.3290000000000002,0.5950000000000001 -1.3290000000000002,1.33 c0,0.7330000000000001 0.5950000000000001,1.3290000000000002 1.3290000000000002,1.3290000000000002 c0.7350000000000001,0 1.33,-0.5960000000000001 1.33,-1.3290000000000002 C4.760265302777291,4.887020622253418 4.1662653027772905,4.293020622253419 3.43126530277729,4.293020622253419 zM3.43126530277729,6.133020622253419 c-0.28200000000000003,0 -0.512,-0.22900000000000004 -0.512,-0.511 s0.23,-0.512 0.512,-0.512 s0.512,0.22900000000000004 0.512,0.512 C3.9432653027772906,5.904020622253418 3.71326530277729,6.133020622253419 3.43126530277729,6.133020622253419 z" id="svg_5"/>
	</g>
</g><g id="svg_6">
</g><g id="svg_7">
</g><g id="svg_8">
</g><g id="svg_9">
</g><g id="svg_10">
</g><g id="svg_11">
</g><g id="svg_12">
</g><g id="svg_13">
</g><g id="svg_14">
</g><g id="svg_15">
</g><g id="svg_16">
</g><g id="svg_17">
</g><g id="svg_18">
</g><g id="svg_19">
</g><g id="svg_20">
</g></g></svg>