<svg xmlns="http://www.w3.org/2000/svg" xmlns:xlink="http://www.w3.org/1999/xlink" version="1.1" style="enable-background:new 0 0 20.07 20.07;" xml:space="preserve" ><rect id="backgroundrect" />
















<g class="currentLayer" style=""><title>Layer 1</title><g id="svg_1" class="">
	<g id="svg_2">
		<path d="M20.85740155696869,4.590188982009888 c0,0 -0.7190000000000003,-1.593 -5.363,-1.53 c0,0 -4.626,-4.644 -13.986,0.5820000000000003 c0,0 0.20500000000000004,1.018 -0.5660000000000003,1.018 c-0.15900000000000009,0.7650000000000003 -0.3220000000000002,1.7690000000000001 0.203,2.294 c1.146,0 1.2570000000000001,0 1.266,0 c-0.02800000000000001,-0.12300000000000004 -0.04400000000000003,-0.25 -0.04400000000000003,-0.38100000000000017 c0,-0.9510000000000003 0.771,-1.722 1.722,-1.722 s1.722,0.771 1.722,1.722 c0,0.131 -0.01600000000000001,0.258 -0.04400000000000003,0.38100000000000017 h0.268 h8.357 h1.119 c-0.02700000000000002,-0.12300000000000004 -0.04300000000000003,-0.25 -0.04300000000000003,-0.38100000000000017 c0,-0.9510000000000003 0.771,-1.722 1.721,-1.722 c1.2970000000000002,0 2.037,1.318 1.9060000000000001,2.092 l1.762,-0.18200000000000008 C20.588401556968687,5.175188982009887 20.85740155696869,4.590188982009888 20.85740155696869,4.590188982009888 zM7.723401556968689,3.3231889820098885 H3.616401556968689 c0,0 1.703,-0.798 4.107,-1.2610000000000001 V3.3231889820098885 zM8.614401556968689,3.3231889820098885 V1.9151889820098873 c3.442,-0.49800000000000016 6.143,1.408 6.143,1.408 H8.614401556968689 z" id="svg_3"/>
		<path style="fill:#d06b6b;" d="M17.18940155696869,5.230188982009889 c-0.7340000000000003,0 -1.33,0.5950000000000003 -1.33,1.33 c0,0.7330000000000003 0.5960000000000003,1.3290000000000002 1.33,1.3290000000000002 s1.514,-0.5960000000000003 1.514,-1.3290000000000002 C18.70340155696869,5.824188982009888 17.92440155696869,5.230188982009889 17.18940155696869,5.230188982009889 zM17.18940155696869,7.070188982009888 c-0.28300000000000014,0 -0.512,-0.2290000000000001 -0.512,-0.511 s0.2290000000000001,-0.512 0.512,-0.512 c0.281,0 0.512,0.2290000000000001 0.512,0.512 C17.70140155696869,6.8411889820098875 17.47040155696869,7.070188982009888 17.18940155696869,7.070188982009888 z" id="svg_4"/>
		<path style="fill:#d06b6b;" d="M4.055401556968689,5.230188982009889 c-0.7340000000000003,0 -1.3290000000000002,0.5950000000000003 -1.3290000000000002,1.33 c0,0.7330000000000003 0.5950000000000003,1.3290000000000002 1.3290000000000002,1.3290000000000002 c0.7350000000000003,0 1.33,-0.5960000000000003 1.33,-1.3290000000000002 C5.384401556968689,5.824188982009888 4.790401556968689,5.230188982009889 4.055401556968689,5.230188982009889 zM4.055401556968689,7.070188982009888 c-0.28200000000000014,0 -0.512,-0.2290000000000001 -0.512,-0.511 s0.23,-0.512 0.512,-0.512 s0.512,0.2290000000000001 0.512,0.512 C4.567401556968689,6.8411889820098875 4.337401556968689,7.070188982009888 4.055401556968689,7.070188982009888 z" id="svg_5"/>
	</g>
</g><g id="svg_6">
</g><g id="svg_7">
</g><g id="svg_8">
</g><g id="svg_9">
</g><g id="svg_10">
</g><g id="svg_11">
</g><g id="svg_12">
</g><g id="svg_13">
</g><g id="svg_14">
</g><g id="svg_15">
</g><g id="svg_16">
</g><g id="svg_17">
</g><g id="svg_18">
</g><g id="svg_19">
</g><g id="svg_20">
</g></g></svg>